<svg width="81" height="54" viewBox="0 0 81 54" fill="none" xmlns="http://www.w3.org/2000/svg">
<path d="M1.54 27V11.16H7.656C7.81 11.16 7.98233 11.1673 8.173 11.182C8.371 11.1893 8.569 11.2113 8.767 11.248C9.59567 11.3727 10.296 11.6623 10.868 12.117C11.4473 12.5643 11.8837 13.129 12.177 13.811C12.4777 14.493 12.628 15.2483 12.628 16.077C12.628 16.8983 12.4777 17.65 12.177 18.332C11.8763 19.014 11.4363 19.5823 10.857 20.037C10.285 20.4843 9.58833 20.7703 8.767 20.895C8.569 20.9243 8.371 20.9463 8.173 20.961C7.98233 20.9757 7.81 20.983 7.656 20.983H3.157V27H1.54ZM3.157 19.443H7.612C7.744 19.443 7.898 19.4357 8.074 19.421C8.25 19.4063 8.42233 19.3807 8.591 19.344C9.13367 19.2267 9.57733 19.003 9.922 18.673C10.274 18.343 10.5343 17.9507 10.703 17.496C10.879 17.0413 10.967 16.5683 10.967 16.077C10.967 15.5857 10.879 15.1127 10.703 14.658C10.5343 14.196 10.274 13.8 9.922 13.47C9.57733 13.14 9.13367 12.9163 8.591 12.799C8.42233 12.7623 8.25 12.7403 8.074 12.733C7.898 12.7183 7.744 12.711 7.612 12.711H3.157V19.443ZM17.2373 12.865V11.05H18.8543V12.865H17.2373ZM17.2373 27V15.12H18.8543V27H17.2373ZM23.0321 27L27.6741 20.994L23.1311 15.12H25.0671L28.6201 19.751L32.1401 15.12H34.0761L29.5331 20.994L34.1861 27H32.2391L28.6201 22.237L24.9791 27H23.0321ZM42.751 27.33C41.5923 27.33 40.5876 27.0733 39.737 26.56C38.8936 26.0467 38.2373 25.3243 37.768 24.393C37.2986 23.4617 37.064 22.369 37.064 21.115C37.064 19.817 37.295 18.695 37.757 17.749C38.219 16.803 38.868 16.0733 39.704 15.56C40.5473 15.0467 41.541 14.79 42.685 14.79C43.8583 14.79 44.8593 15.0613 45.688 15.604C46.5167 16.1393 47.1437 16.9093 47.569 17.914C47.9943 18.9187 48.1887 20.1177 48.152 21.511H46.502V20.939C46.4726 19.399 46.139 18.2367 45.501 17.452C44.8703 16.6673 43.9463 16.275 42.729 16.275C41.453 16.275 40.474 16.6893 39.792 17.518C39.1173 18.3467 38.78 19.5273 38.78 21.06C38.78 22.556 39.1173 23.7183 39.792 24.547C40.474 25.3683 41.4383 25.779 42.685 25.779C43.5356 25.779 44.2763 25.5847 44.907 25.196C45.545 24.8 46.0473 24.2317 46.414 23.491L47.921 24.074C47.4516 25.108 46.7586 25.911 45.842 26.483C44.9326 27.0477 43.9023 27.33 42.751 27.33ZM38.208 21.511V20.158H47.283V21.511H38.208ZM53.0131 27V10.83H54.6301V27H53.0131ZM7.04 48.33C5.93267 48.33 4.93533 48.1467 4.048 47.78C3.168 47.406 2.43833 46.878 1.859 46.196C1.287 45.514 0.913 44.7037 0.737 43.765L2.387 43.49C2.651 44.5167 3.20833 45.3233 4.059 45.91C4.90967 46.4893 5.92533 46.779 7.106 46.779C7.88333 46.779 8.58 46.658 9.196 46.416C9.812 46.1667 10.296 45.8147 10.648 45.36C11 44.9053 11.176 44.3663 11.176 43.743C11.176 43.3323 11.1027 42.984 10.956 42.698C10.8093 42.4047 10.615 42.1627 10.373 41.972C10.131 41.7813 9.867 41.6237 9.581 41.499C9.295 41.367 9.01633 41.2607 8.745 41.18L4.73 39.981C4.246 39.8417 3.79867 39.6657 3.388 39.453C2.97733 39.233 2.618 38.9727 2.31 38.672C2.00933 38.364 1.77467 38.0047 1.606 37.594C1.43733 37.1833 1.353 36.714 1.353 36.186C1.353 35.2913 1.58767 34.5177 2.057 33.865C2.52633 33.2123 3.168 32.71 3.982 32.358C4.796 32.006 5.72367 31.8337 6.765 31.841C7.821 31.841 8.76333 32.028 9.592 32.402C10.428 32.776 11.1173 33.3113 11.66 34.008C12.2027 34.6973 12.562 35.515 12.738 36.461L11.044 36.769C10.934 36.0797 10.681 35.482 10.285 34.976C9.889 34.47 9.383 34.0813 8.767 33.81C8.15833 33.5313 7.48733 33.3883 6.754 33.381C6.04267 33.381 5.40833 33.502 4.851 33.744C4.301 33.9787 3.86467 34.3013 3.542 34.712C3.21933 35.1227 3.058 35.592 3.058 36.12C3.058 36.6553 3.20467 37.0843 3.498 37.407C3.79867 37.7297 4.16533 37.9827 4.598 38.166C5.038 38.3493 5.46333 38.4997 5.874 38.617L8.976 39.53C9.29867 39.618 9.67633 39.7463 10.109 39.915C10.549 40.0763 10.9743 40.311 11.385 40.619C11.803 40.9197 12.1477 41.3157 12.419 41.807C12.6903 42.2983 12.826 42.9217 12.826 43.677C12.826 44.4103 12.6793 45.0667 12.386 45.646C12.1 46.2253 11.693 46.713 11.165 47.109C10.6443 47.505 10.032 47.8057 9.328 48.011C8.63133 48.2237 7.86867 48.33 7.04 48.33ZM23.7646 48C23.0973 48.1393 22.4373 48.1943 21.7846 48.165C21.1393 48.1357 20.56 47.9963 20.0466 47.747C19.5406 47.4977 19.1556 47.109 18.8916 46.581C18.679 46.141 18.5616 45.6973 18.5396 45.25C18.525 44.7953 18.5176 44.2783 18.5176 43.699V32.82H20.1236V43.633C20.1236 44.1317 20.1273 44.5497 20.1346 44.887C20.1493 45.217 20.2263 45.5103 20.3656 45.767C20.6296 46.2583 21.0476 46.5517 21.6196 46.647C22.199 46.7423 22.914 46.7203 23.7646 46.581V48ZM15.9766 37.506V36.12H23.7646V37.506H15.9766ZM32.8365 48.33C31.6559 48.33 30.6475 48.0623 29.8115 47.527C28.9755 46.9917 28.3339 46.251 27.8865 45.305C27.4392 44.359 27.2155 43.2737 27.2155 42.049C27.2155 40.8023 27.4429 39.7097 27.8975 38.771C28.3522 37.8323 28.9975 37.1027 29.8335 36.582C30.6769 36.054 31.6779 35.79 32.8365 35.79C34.0245 35.79 35.0365 36.0577 35.8725 36.593C36.7159 37.121 37.3575 37.858 37.7975 38.804C38.2449 39.7427 38.4685 40.8243 38.4685 42.049C38.4685 43.2957 38.2449 44.392 37.7975 45.338C37.3502 46.2767 36.7049 47.01 35.8615 47.538C35.0182 48.066 34.0099 48.33 32.8365 48.33ZM32.8365 46.779C34.1565 46.779 35.1392 46.3427 35.7845 45.47C36.4299 44.59 36.7525 43.4497 36.7525 42.049C36.7525 40.6117 36.4262 39.4677 35.7735 38.617C35.1282 37.7663 34.1492 37.341 32.8365 37.341C31.9492 37.341 31.2159 37.5427 30.6365 37.946C30.0645 38.342 29.6355 38.8957 29.3495 39.607C29.0709 40.311 28.9315 41.125 28.9315 42.049C28.9315 43.479 29.2615 44.6267 29.9215 45.492C30.5815 46.35 31.5532 46.779 32.8365 46.779ZM43.0951 48V36.12H44.5471V38.98L44.2611 38.606C44.3931 38.254 44.5654 37.9313 44.7781 37.638C44.9907 37.3373 45.2217 37.0917 45.4711 36.901C45.7791 36.6297 46.1384 36.4243 46.5491 36.285C46.9597 36.1383 47.3741 36.054 47.7921 36.032C48.2101 36.0027 48.5914 36.032 48.9361 36.12V37.638C48.5034 37.528 48.0304 37.5023 47.5171 37.561C47.0037 37.6197 46.5307 37.825 46.0981 38.177C45.7021 38.485 45.4051 38.8553 45.2071 39.288C45.0091 39.7133 44.8771 40.168 44.8111 40.652C44.7451 41.1287 44.7121 41.6017 44.7121 42.071V48H43.0951ZM54.7664 53.28L57.0654 47.043L57.0984 48.891L51.8954 36.12H53.6114L57.8794 46.801H57.1754L61.1134 36.12H62.7634L56.3834 53.28H54.7664Z" fill="white"/>
<mask id="path-2-inside-1_23_4" fill="white">
<path fill-rule="evenodd" clip-rule="evenodd" d="M81 0H66V8H72H73V9V15H81V0ZM72 15V9H66V15H72Z"/>
</mask>
<path fill-rule="evenodd" clip-rule="evenodd" d="M81 0H66V8H72H73V9V15H81V0ZM72 15V9H66V15H72Z" fill="white"/>
<path d="M66 0V-1H65V0H66ZM81 0H82V-1H81V0ZM66 8H65V9H66V8ZM73 8H74V7H73V8ZM73 15H72V16H73V15ZM81 15V16H82V15H81ZM72 15V16H73V15H72ZM72 9H73V8H72V9ZM66 9V8H65V9H66ZM66 15H65V16H66V15ZM66 1H81V-1H66V1ZM67 8V0H65V8H67ZM72 7H66V9H72V7ZM73 7H72V9H73V7ZM74 9V8H72V9H74ZM74 15V9H72V15H74ZM81 14H73V16H81V14ZM80 0V15H82V0H80ZM73 15V9H71V15H73ZM72 8H66V10H72V8ZM67 15V9H65V15H67ZM72 14H66V16H72V14Z" fill="white" mask="url(#path-2-inside-1_23_4)"/>
<path fill-rule="evenodd" clip-rule="evenodd" d="M66 8H63H62V9V18V19H63H72H73V18V15H72V18H63V9H66V8Z" fill="white"/>
</svg>
